<svg width="18" height="23" viewBox="0 0 18 23" fill="none" xmlns="http://www.w3.org/2000/svg">
<path d="M17.5 14C17.5 18.6944 13.6944 22.5 9 22.5C4.30558 22.5 0.5 18.6944 0.5 14C0.5 12.8867 1.01169 11.4817 1.84511 9.95513C2.67068 8.44294 3.7776 6.87221 4.89394 5.44395C6.00883 4.01755 7.12496 2.74357 7.96301 1.82564C8.38178 1.36694 8.73051 0.997819 8.97415 0.743776C8.9829 0.734649 8.99152 0.725671 9 0.716843C9.00848 0.725671 9.0171 0.734649 9.02585 0.743776C9.26949 0.997819 9.61822 1.36694 10.037 1.82564C10.875 2.74357 11.9912 4.01755 13.1061 5.44395C14.2224 6.87221 15.3293 8.44294 16.1549 9.95513C16.9883 11.4817 17.5 12.8867 17.5 14Z" stroke="#F27921"/>
<path d="M14 14.3333C14 17.0948 11.7614 19.3333 9 19.3333C6.23858 19.3333 4 17.0948 4 14.3333C4 11.5719 9 6 9 6C9 6 14 11.5719 14 14.3333Z" fill="#FFAD2E"/>
</svg>
