<svg width="60" height="60" viewBox="0 0 60 60" fill="none" xmlns="http://www.w3.org/2000/svg">
<path d="M50.4 27.2438C50.7844 26.2406 51 25.1437 51 24C51 19.0312 46.9688 15 42 15C40.1531 15 38.4281 15.5625 37.0031 16.5187C34.4062 12.0187 29.5594 9 24 9C15.7125 9 9 15.7125 9 24C9 24.2531 9.00937 24.5063 9.01875 24.7594C3.76875 26.6063 0 31.6125 0 37.5C0 44.9531 6.04688 51 13.5 51H48C54.6281 51 60 45.6281 60 39C60 33.1969 55.875 28.35 50.4 27.2438ZM36.8812 33H30.75V43.5C30.75 44.325 30.075 45 29.25 45H24.75C23.925 45 23.25 44.325 23.25 43.5V33H17.1188C15.7781 33 15.1125 31.3875 16.0594 30.4406L25.9406 20.5594C26.5219 19.9781 27.4781 19.9781 28.0594 20.5594L37.9406 30.4406C38.8875 31.3875 38.2125 33 36.8812 33Z" fill="black"/>
</svg>
